<?xml version="1.0" encoding="utf-8"?>
<svg version="1.1" xmlns:xlink="http://www.w3.org/1999/xlink" width="103px" height="26px" xmlns="http://www.w3.org/2000/svg">
  <defs>
    <mask fill="white" id="clip1">
      <path d="M 0 21  L 0 5  C 0 2.19999999999999  2.19999999999999 0  5 0  L 57.7999999999993 0  L 98 0  C 100.8 0  103 2.19999999999999  103 5  L 103 21  C 103 23.8  100.8 26  98 26  L 5 26  C 2.19999999999999 26  0 23.8  0 21  Z " fill-rule="evenodd" />
    </mask>
  </defs>
  <g transform="matrix(1 0 0 1 -138 -230 )">
    <path d="M 0 21  L 0 5  C 0 2.19999999999999  2.19999999999999 0  5 0  L 57.7999999999993 0  L 98 0  C 100.8 0  103 2.19999999999999  103 5  L 103 21  C 103 23.8  100.8 26  98 26  L 5 26  C 2.19999999999999 26  0 23.8  0 21  Z " fill-rule="nonzero" fill="#ffffff" stroke="none" transform="matrix(1 0 0 1 138 230 )" />
    <path d="M 0 21  L 0 5  C 0 2.19999999999999  2.19999999999999 0  5 0  L 57.7999999999993 0  L 98 0  C 100.8 0  103 2.19999999999999  103 5  L 103 21  C 103 23.8  100.8 26  98 26  L 5 26  C 2.19999999999999 26  0 23.8  0 21  Z " stroke-width="2" stroke="#797979" fill="none" transform="matrix(1 0 0 1 138 230 )" mask="url(#clip1)" />
  </g>
</svg>